<svg xmlns="http://www.w3.org/2000/svg" viewBox="0 0 64 64" id="motivation"><path d="M47,11.98442H45v-4.5a4.50531,4.50531,0,0,0-7.61-3.23,4.49031,4.49031,0,0,0-7.77,0A4.51688,4.51688,0,0,0,22,7.74443a4.52832,4.52832,0,0,0-7,3.74v5.5a3.00878,3.00878,0,0,0-3,3v1.91a10.05606,10.05606,0,0,0,2.11,6.14l3.21,4.13a8.05554,8.05554,0,0,1,1.68,4.91v7.47a3.9804,3.9804,0,0,0-2,3.44v10a3.9989,3.9989,0,0,0,4,4H43a3.99891,3.99891,0,0,0,4-4v-10a3.98042,3.98042,0,0,0-2-3.44v-7.47a8.05553,8.05553,0,0,1,1.68-4.91l3.21-4.13a10.056,10.056,0,0,0,2.11-6.14v-4.91A5.00181,5.00181,0,0,0,47,11.98442Zm-9-4.5a2.51083,2.51083,0,0,1,4.27-1.76,2.46509,2.46509,0,0,1,.73,1.76v4.5H38Zm-7-1a2.50017,2.50017,0,0,1,5,0v5.5c-.77.06-4.34-.16-5,.18Zm0,13.38a6.95939,6.95939,0,0,0,4.5,2.09A2.53758,2.53758,0,0,1,31,19.86442Zm-7-12.38a2.50017,2.50017,0,0,1,5,0v13a2.50015,2.50015,0,0,1-5-.00012Zm-7,4a2.50017,2.50017,0,0,1,5,0v8a2.50015,2.50015,0,0,1-5-.00012Zm22,43.5a2.0001,2.0001,0,0,1,0-4A2.0001,2.0001,0,0,1,39,54.98442Zm11-33.09a8.05558,8.05558,0,0,1-1.68,4.91l-3.21,4.13A10.056,10.056,0,0,0,43,37.07438v6.91H21v-6.91a10.05594,10.05594,0,0,0-2.11-6.13995l-3.21-4.13a8.05557,8.05557,0,0,1-1.68-4.91v-1.91a1.003,1.003,0,0,1,1-1,4.52649,4.52649,0,0,0,7.62,3.73,4.48379,4.48379,0,0,0,7.38.56,4.49184,4.49184,0,0,0,7.73-1.29h.1a4.11679,4.11679,0,0,0,4.12,4,1.00952,1.00952,0,0,0,1.05-.95.99729.99729,0,0,0-.95-1.05,2.29289,2.29289,0,0,1-2.11-1.35,2.03373,2.03373,0,0,1,.01-1.33,1.00981,1.00981,0,0,0-.95-1.32H36a5.015,5.015,0,0,1-5-4.97,1.01578,1.01578,0,0,1,1-1.03H47a3.00879,3.00879,0,0,1,3,3Z"></path><path d="M35.68359 27.03618a10.959 10.959 0 00-3.59277 1.94763c-.647-.82453-1.96949-2.82892-3.10059-1.6001a1.00114 1.00114 0 00.19922 1.40051 5.30257 5.30257 0 011.47571 1.67316A8.13026 8.13026 0 0029 34.98442a1.00021 1.00021 0 002 .0058c.002-.17572.11523-4.32319 5.3164-6.05756A.99974.99974 0 0035.68359 27.03618zM56.249 8.98442a.9997.9997 0 00-1.36621-.36621l-2.59863 1.5a1.00016 1.00016 0 101 1.73242l2.59863-1.5A.99989.99989 0 0056.249 8.98442zM58.33886 16.962a1 1 0 00-.51764-1.93164l-2.8974.77636a1 1 0 00.51758 1.93164zM59 21.98442H56a1.0001 1.0001 0 00.00006 2H59A1.0001 1.0001 0 0059 21.98442zM11.71582 10.11821l-2.59864-1.5a1.00025 1.00025 0 00-.99994 1.73242c.34546.144 2.739 1.72943 3.0976 1.63385A1.00586 1.00586 0 0011.71582 10.11821zM9.07617 15.80668l-2.89746-.77636A.99989.99989 0 005.66113 16.962c.07922.00872 3.18823.88849 3.15723.81054A1.00249 1.00249 0 009.07617 15.80668zM8 21.98442H5a1.0001 1.0001 0 00.00006 2H8A1.0001 1.0001 0 008 21.98442z"></path></svg>